<mxfile host="app.diagrams.net" modified="2022-02-16T19:59:10.356Z" agent="5.0 (X11)" etag="4jc7Ydb-OnAod1mz3K62" version="16.5.6" type="github">
  <diagram id="NNdJHqBH9D12fwPxONFa" name="Page-1">
    <mxGraphModel dx="814" dy="470" grid="0" gridSize="10" guides="1" tooltips="1" connect="1" arrows="1" fold="1" page="1" pageScale="1" pageWidth="850" pageHeight="1100" math="0" shadow="0">
      <root>
        <mxCell id="0" />
        <mxCell id="1" parent="0" />
        <mxCell id="EjGBcRymK41cddXluUsa-5" value="STUDENT" style="swimlane;fillColor=#e1d5e7;strokeColor=#9673a6;" vertex="1" parent="1">
          <mxGeometry x="20" y="150" width="131" height="78" as="geometry" />
        </mxCell>
        <mxCell id="EjGBcRymK41cddXluUsa-6" value="&lt;div align=&quot;justify&quot;&gt;*student_id&lt;/div&gt;&lt;div align=&quot;justify&quot;&gt;student_name&lt;/div&gt;&lt;div align=&quot;justify&quot;&gt;student_address&lt;br&gt;&lt;/div&gt;" style="text;html=1;align=center;verticalAlign=middle;resizable=0;points=[];autosize=1;strokeColor=none;fillColor=none;" vertex="1" parent="EjGBcRymK41cddXluUsa-5">
          <mxGeometry x="16" y="27" width="98" height="46" as="geometry" />
        </mxCell>
        <mxCell id="EjGBcRymK41cddXluUsa-9" value="SEAT" style="swimlane;fillColor=#e1d5e7;strokeColor=#9673a6;" vertex="1" parent="1">
          <mxGeometry x="20" y="282" width="131" height="78" as="geometry" />
        </mxCell>
        <mxCell id="EjGBcRymK41cddXluUsa-10" value="&lt;div align=&quot;justify&quot;&gt;*seat_no&lt;/div&gt;&lt;div align=&quot;justify&quot;&gt;seat_position&lt;br&gt;&lt;/div&gt;" style="text;html=1;align=center;verticalAlign=middle;resizable=0;points=[];autosize=1;strokeColor=none;fillColor=none;" vertex="1" parent="EjGBcRymK41cddXluUsa-9">
          <mxGeometry x="25" y="34" width="80" height="32" as="geometry" />
        </mxCell>
        <mxCell id="EjGBcRymK41cddXluUsa-11" value="COURSE" style="swimlane;fillColor=#e1d5e7;strokeColor=#9673a6;" vertex="1" parent="1">
          <mxGeometry x="294.5" y="150" width="131" height="78" as="geometry" />
        </mxCell>
        <mxCell id="EjGBcRymK41cddXluUsa-12" value="&lt;div align=&quot;justify&quot;&gt;*course_name&lt;/div&gt;&lt;div align=&quot;justify&quot;&gt;*course_number&lt;br&gt;&lt;/div&gt;" style="text;html=1;align=center;verticalAlign=middle;resizable=0;points=[];autosize=1;strokeColor=none;fillColor=none;" vertex="1" parent="EjGBcRymK41cddXluUsa-11">
          <mxGeometry x="16" y="34" width="98" height="32" as="geometry" />
        </mxCell>
        <mxCell id="EjGBcRymK41cddXluUsa-13" value="CLASS" style="swimlane;fillColor=#e1d5e7;strokeColor=#9673a6;" vertex="1" parent="1">
          <mxGeometry x="294.5" y="271" width="129.5" height="89" as="geometry" />
        </mxCell>
        <mxCell id="EjGBcRymK41cddXluUsa-14" value="&lt;div align=&quot;justify&quot;&gt;*course_name&lt;/div&gt;&lt;div align=&quot;justify&quot;&gt;*section_number&lt;/div&gt;&lt;div align=&quot;justify&quot;&gt;number_registered&lt;/div&gt;&lt;div align=&quot;justify&quot;&gt;class_date_time&lt;br&gt;&lt;/div&gt;&lt;div align=&quot;justify&quot;&gt;&lt;br&gt;&lt;/div&gt;" style="text;html=1;align=center;verticalAlign=middle;resizable=0;points=[];autosize=1;strokeColor=none;fillColor=none;" vertex="1" parent="EjGBcRymK41cddXluUsa-13">
          <mxGeometry x="10" y="25" width="110" height="74" as="geometry" />
        </mxCell>
        <mxCell id="EjGBcRymK41cddXluUsa-15" value="SECTION" style="swimlane;fillColor=#e1d5e7;strokeColor=#9673a6;" vertex="1" parent="1">
          <mxGeometry x="294" y="400" width="131" height="78" as="geometry" />
        </mxCell>
        <mxCell id="EjGBcRymK41cddXluUsa-16" value="*section_number" style="text;html=1;align=center;verticalAlign=middle;resizable=0;points=[];autosize=1;strokeColor=none;fillColor=none;" vertex="1" parent="EjGBcRymK41cddXluUsa-15">
          <mxGeometry x="15" y="41" width="100" height="18" as="geometry" />
        </mxCell>
        <mxCell id="EjGBcRymK41cddXluUsa-17" value="INSTRUICTOR" style="swimlane;fillColor=#e1d5e7;strokeColor=#9673a6;startSize=23;" vertex="1" parent="1">
          <mxGeometry x="521" y="150" width="131" height="78" as="geometry" />
        </mxCell>
        <mxCell id="EjGBcRymK41cddXluUsa-18" value="&lt;div align=&quot;justify&quot;&gt;*instructor_no&lt;/div&gt;&lt;div align=&quot;justify&quot;&gt;instructor_name&lt;/div&gt;&lt;div align=&quot;justify&quot;&gt;&lt;div&gt;instructor_faculty&lt;/div&gt;&lt;/div&gt;" style="text;html=1;align=center;verticalAlign=middle;resizable=0;points=[];autosize=1;strokeColor=none;fillColor=none;" vertex="1" parent="EjGBcRymK41cddXluUsa-17">
          <mxGeometry x="15" y="27" width="101" height="46" as="geometry" />
        </mxCell>
        <mxCell id="EjGBcRymK41cddXluUsa-19" value="PROFESSOR" style="swimlane;fillColor=#e1d5e7;strokeColor=#9673a6;" vertex="1" parent="1">
          <mxGeometry x="521" y="400" width="131" height="78" as="geometry" />
        </mxCell>
        <mxCell id="EjGBcRymK41cddXluUsa-20" value="&lt;div align=&quot;justify&quot;&gt;*professor_id&lt;/div&gt;&lt;div align=&quot;justify&quot;&gt;professor_name&lt;/div&gt;&lt;div align=&quot;justify&quot;&gt;professor_faculty&lt;br&gt;&lt;/div&gt;" style="text;html=1;align=center;verticalAlign=middle;resizable=0;points=[];autosize=1;strokeColor=none;fillColor=none;" vertex="1" parent="EjGBcRymK41cddXluUsa-19">
          <mxGeometry x="15" y="27" width="101" height="46" as="geometry" />
        </mxCell>
        <mxCell id="EjGBcRymK41cddXluUsa-45" value="" style="endArrow=classic;startArrow=classic;html=1;rounded=0;shadow=0;sketch=0;entryX=0.5;entryY=1;entryDx=0;entryDy=0;exitX=0.5;exitY=0;exitDx=0;exitDy=0;" edge="1" parent="1" source="EjGBcRymK41cddXluUsa-9" target="EjGBcRymK41cddXluUsa-5">
          <mxGeometry width="50" height="50" relative="1" as="geometry">
            <mxPoint x="158" y="291" as="sourcePoint" />
            <mxPoint x="158" y="221" as="targetPoint" />
          </mxGeometry>
        </mxCell>
        <mxCell id="EjGBcRymK41cddXluUsa-46" value="" style="endArrow=classic;startArrow=classic;html=1;rounded=0;shadow=0;sketch=0;entryX=0.5;entryY=1;entryDx=0;entryDy=0;" edge="1" parent="1">
          <mxGeometry width="50" height="50" relative="1" as="geometry">
            <mxPoint x="295" y="189" as="sourcePoint" />
            <mxPoint x="151" y="188.5" as="targetPoint" />
            <Array as="points" />
          </mxGeometry>
        </mxCell>
        <mxCell id="EjGBcRymK41cddXluUsa-47" value="" style="endArrow=classic;startArrow=classic;html=1;rounded=0;shadow=0;sketch=0;entryX=0.5;entryY=1;entryDx=0;entryDy=0;" edge="1" parent="1">
          <mxGeometry width="50" height="50" relative="1" as="geometry">
            <mxPoint x="523" y="189" as="sourcePoint" />
            <mxPoint x="425.5" y="188.5" as="targetPoint" />
            <Array as="points" />
          </mxGeometry>
        </mxCell>
        <mxCell id="EjGBcRymK41cddXluUsa-48" value="" style="endArrow=classic;startArrow=classic;html=1;rounded=0;shadow=0;sketch=0;entryX=0.5;entryY=1;entryDx=0;entryDy=0;" edge="1" parent="1">
          <mxGeometry width="50" height="50" relative="1" as="geometry">
            <mxPoint x="360" y="271" as="sourcePoint" />
            <mxPoint x="359.5" y="226" as="targetPoint" />
          </mxGeometry>
        </mxCell>
        <mxCell id="EjGBcRymK41cddXluUsa-50" value="" style="endArrow=classic;startArrow=classic;html=1;rounded=0;shadow=0;sketch=0;" edge="1" parent="1">
          <mxGeometry width="50" height="50" relative="1" as="geometry">
            <mxPoint x="360" y="403" as="sourcePoint" />
            <mxPoint x="360" y="357" as="targetPoint" />
            <Array as="points">
              <mxPoint x="360" y="380" />
            </Array>
          </mxGeometry>
        </mxCell>
        <mxCell id="EjGBcRymK41cddXluUsa-51" value="" style="endArrow=classic;startArrow=classic;html=1;rounded=0;shadow=0;sketch=0;entryX=0.5;entryY=1;entryDx=0;entryDy=0;" edge="1" parent="1">
          <mxGeometry width="50" height="50" relative="1" as="geometry">
            <mxPoint x="521.5" y="441.5" as="sourcePoint" />
            <mxPoint x="424" y="441" as="targetPoint" />
            <Array as="points">
              <mxPoint x="469" y="441" />
            </Array>
          </mxGeometry>
        </mxCell>
        <mxCell id="EjGBcRymK41cddXluUsa-52" value="teaches" style="text;html=1;strokeColor=none;fillColor=none;align=center;verticalAlign=middle;whiteSpace=wrap;rounded=0;" vertex="1" parent="1">
          <mxGeometry x="444" y="411" width="60" height="30" as="geometry" />
        </mxCell>
        <mxCell id="EjGBcRymK41cddXluUsa-53" value="teaches" style="text;html=1;strokeColor=none;fillColor=none;align=center;verticalAlign=middle;whiteSpace=wrap;rounded=0;" vertex="1" parent="1">
          <mxGeometry x="444" y="161" width="60" height="30" as="geometry" />
        </mxCell>
        <mxCell id="EjGBcRymK41cddXluUsa-55" value="has" style="text;html=1;strokeColor=none;fillColor=none;align=center;verticalAlign=middle;whiteSpace=wrap;rounded=0;" vertex="1" parent="1">
          <mxGeometry x="349" y="366" width="60" height="30" as="geometry" />
        </mxCell>
        <mxCell id="EjGBcRymK41cddXluUsa-56" value="has" style="text;html=1;strokeColor=none;fillColor=none;align=center;verticalAlign=middle;whiteSpace=wrap;rounded=0;" vertex="1" parent="1">
          <mxGeometry x="349" y="233" width="60" height="30" as="geometry" />
        </mxCell>
        <mxCell id="EjGBcRymK41cddXluUsa-57" value="takes" style="text;html=1;strokeColor=none;fillColor=none;align=center;verticalAlign=middle;whiteSpace=wrap;rounded=0;" vertex="1" parent="1">
          <mxGeometry x="182" y="163" width="60" height="30" as="geometry" />
        </mxCell>
        <mxCell id="EjGBcRymK41cddXluUsa-58" value="fills" style="text;html=1;strokeColor=none;fillColor=none;align=center;verticalAlign=middle;whiteSpace=wrap;rounded=0;" vertex="1" parent="1">
          <mxGeometry x="77" y="241" width="60" height="30" as="geometry" />
        </mxCell>
        <mxCell id="EjGBcRymK41cddXluUsa-59" value="&lt;div&gt;&lt;b&gt;Ranit Pradhan&lt;/b&gt;&lt;/div&gt;&lt;div&gt;&lt;b&gt;ELC19028&lt;br&gt;&lt;/b&gt;&lt;/div&gt;&lt;div&gt;&lt;b&gt;&lt;br&gt;&lt;/b&gt;&lt;/div&gt;" style="text;html=1;strokeColor=none;fillColor=none;align=center;verticalAlign=middle;whiteSpace=wrap;rounded=0;" vertex="1" parent="1">
          <mxGeometry x="532" y="287.75" width="136" height="66.5" as="geometry" />
        </mxCell>
        <mxCell id="EjGBcRymK41cddXluUsa-60" value="" style="rounded=0;whiteSpace=wrap;html=1;gradientColor=none;" vertex="1" parent="1">
          <mxGeometry x="86.5" y="667" width="77" height="31" as="geometry" />
        </mxCell>
        <mxCell id="EjGBcRymK41cddXluUsa-61" value="" style="rounded=0;whiteSpace=wrap;html=1;gradientColor=none;" vertex="1" parent="1">
          <mxGeometry x="333" y="669.75" width="77" height="31" as="geometry" />
        </mxCell>
        <mxCell id="EjGBcRymK41cddXluUsa-95" style="edgeStyle=none;rounded=0;sketch=0;orthogonalLoop=1;jettySize=auto;html=1;exitX=0;exitY=0.5;exitDx=0;exitDy=0;entryX=1;entryY=0.5;entryDx=0;entryDy=0;shadow=0;" edge="1" parent="1" source="EjGBcRymK41cddXluUsa-63" target="EjGBcRymK41cddXluUsa-61">
          <mxGeometry relative="1" as="geometry" />
        </mxCell>
        <mxCell id="EjGBcRymK41cddXluUsa-63" value="" style="rhombus;whiteSpace=wrap;html=1;gradientColor=none;" vertex="1" parent="1">
          <mxGeometry x="463" y="653.75" width="56" height="57.5" as="geometry" />
        </mxCell>
        <mxCell id="EjGBcRymK41cddXluUsa-64" value="" style="shape=process;whiteSpace=wrap;html=1;backgroundOutline=1;gradientColor=none;" vertex="1" parent="1">
          <mxGeometry x="569" y="658.25" width="109" height="48.5" as="geometry" />
        </mxCell>
        <mxCell id="EjGBcRymK41cddXluUsa-65" value="" style="ellipse;whiteSpace=wrap;html=1;gradientColor=none;" vertex="1" parent="1">
          <mxGeometry x="734" y="658.75" width="89" height="48" as="geometry" />
        </mxCell>
        <mxCell id="EjGBcRymK41cddXluUsa-66" value="" style="ellipse;whiteSpace=wrap;html=1;gradientColor=none;" vertex="1" parent="1">
          <mxGeometry x="581" y="770" width="89" height="45.75" as="geometry" />
        </mxCell>
        <mxCell id="EjGBcRymK41cddXluUsa-68" value="" style="ellipse;whiteSpace=wrap;html=1;gradientColor=none;" vertex="1" parent="1">
          <mxGeometry x="16" y="759" width="66" height="41" as="geometry" />
        </mxCell>
        <mxCell id="EjGBcRymK41cddXluUsa-69" value="" style="ellipse;whiteSpace=wrap;html=1;gradientColor=none;" vertex="1" parent="1">
          <mxGeometry x="92" y="796" width="66" height="41" as="geometry" />
        </mxCell>
        <mxCell id="EjGBcRymK41cddXluUsa-70" value="" style="ellipse;whiteSpace=wrap;html=1;gradientColor=none;" vertex="1" parent="1">
          <mxGeometry x="177" y="770" width="66" height="41" as="geometry" />
        </mxCell>
        <mxCell id="EjGBcRymK41cddXluUsa-85" style="edgeStyle=none;rounded=0;sketch=0;orthogonalLoop=1;jettySize=auto;html=1;exitX=0;exitY=0.5;exitDx=0;exitDy=0;entryX=1;entryY=0;entryDx=0;entryDy=0;shadow=0;" edge="1" parent="1" source="EjGBcRymK41cddXluUsa-71" target="EjGBcRymK41cddXluUsa-60">
          <mxGeometry relative="1" as="geometry" />
        </mxCell>
        <mxCell id="EjGBcRymK41cddXluUsa-87" style="edgeStyle=none;rounded=0;sketch=0;orthogonalLoop=1;jettySize=auto;html=1;exitX=1;exitY=0.5;exitDx=0;exitDy=0;entryX=0;entryY=0;entryDx=0;entryDy=0;shadow=0;" edge="1" parent="1" source="EjGBcRymK41cddXluUsa-71" target="EjGBcRymK41cddXluUsa-61">
          <mxGeometry relative="1" as="geometry" />
        </mxCell>
        <mxCell id="EjGBcRymK41cddXluUsa-71" value="" style="rhombus;whiteSpace=wrap;html=1;gradientColor=none;" vertex="1" parent="1">
          <mxGeometry x="218" y="591" width="56" height="57.5" as="geometry" />
        </mxCell>
        <mxCell id="EjGBcRymK41cddXluUsa-86" style="edgeStyle=none;rounded=0;sketch=0;orthogonalLoop=1;jettySize=auto;html=1;exitX=0;exitY=0.5;exitDx=0;exitDy=0;entryX=1;entryY=1;entryDx=0;entryDy=0;shadow=0;" edge="1" parent="1" source="EjGBcRymK41cddXluUsa-72" target="EjGBcRymK41cddXluUsa-60">
          <mxGeometry relative="1" as="geometry" />
        </mxCell>
        <mxCell id="EjGBcRymK41cddXluUsa-72" value="" style="rhombus;whiteSpace=wrap;html=1;gradientColor=none;" vertex="1" parent="1">
          <mxGeometry x="218" y="705" width="56" height="57.5" as="geometry" />
        </mxCell>
        <mxCell id="EjGBcRymK41cddXluUsa-77" value="" style="endArrow=none;html=1;rounded=0;shadow=0;sketch=0;entryX=0;entryY=0;entryDx=0;entryDy=0;" edge="1" parent="1" target="EjGBcRymK41cddXluUsa-70">
          <mxGeometry width="50" height="50" relative="1" as="geometry">
            <mxPoint x="125.5" y="698" as="sourcePoint" />
            <mxPoint x="163.5" y="730.12" as="targetPoint" />
          </mxGeometry>
        </mxCell>
        <mxCell id="EjGBcRymK41cddXluUsa-78" value="" style="endArrow=none;html=1;rounded=0;shadow=0;sketch=0;exitX=0.5;exitY=0;exitDx=0;exitDy=0;" edge="1" parent="1" source="EjGBcRymK41cddXluUsa-69">
          <mxGeometry width="50" height="50" relative="1" as="geometry">
            <mxPoint x="124.5" y="765" as="sourcePoint" />
            <mxPoint x="125" y="696" as="targetPoint" />
          </mxGeometry>
        </mxCell>
        <mxCell id="EjGBcRymK41cddXluUsa-79" value="" style="endArrow=none;html=1;rounded=0;shadow=0;sketch=0;entryX=0.5;entryY=1;entryDx=0;entryDy=0;exitX=1;exitY=0;exitDx=0;exitDy=0;" edge="1" parent="1" source="EjGBcRymK41cddXluUsa-68" target="EjGBcRymK41cddXluUsa-60">
          <mxGeometry width="50" height="50" relative="1" as="geometry">
            <mxPoint x="55" y="705" as="sourcePoint" />
            <mxPoint x="115.87919570355211" y="783.1843610324559" as="targetPoint" />
          </mxGeometry>
        </mxCell>
        <mxCell id="EjGBcRymK41cddXluUsa-80" value="" style="rhombus;whiteSpace=wrap;html=1;gradientColor=none;" vertex="1" parent="1">
          <mxGeometry x="97" y="565" width="56" height="57.5" as="geometry" />
        </mxCell>
        <mxCell id="EjGBcRymK41cddXluUsa-83" value="" style="endArrow=none;html=1;rounded=0;shadow=0;sketch=0;" edge="1" parent="1">
          <mxGeometry width="50" height="50" relative="1" as="geometry">
            <mxPoint x="140" y="667" as="sourcePoint" />
            <mxPoint x="140" y="606" as="targetPoint" />
          </mxGeometry>
        </mxCell>
        <mxCell id="EjGBcRymK41cddXluUsa-84" value="" style="endArrow=none;html=1;rounded=0;shadow=0;sketch=0;" edge="1" parent="1">
          <mxGeometry width="50" height="50" relative="1" as="geometry">
            <mxPoint x="107" y="667" as="sourcePoint" />
            <mxPoint x="107" y="604" as="targetPoint" />
            <Array as="points" />
          </mxGeometry>
        </mxCell>
        <mxCell id="EjGBcRymK41cddXluUsa-88" value="" style="endArrow=none;html=1;rounded=0;shadow=0;sketch=0;entryX=0;entryY=1;entryDx=0;entryDy=0;exitX=1;exitY=0.5;exitDx=0;exitDy=0;" edge="1" parent="1" source="EjGBcRymK41cddXluUsa-72" target="EjGBcRymK41cddXluUsa-61">
          <mxGeometry width="50" height="50" relative="1" as="geometry">
            <mxPoint x="274" y="736" as="sourcePoint" />
            <mxPoint x="324" y="686" as="targetPoint" />
          </mxGeometry>
        </mxCell>
        <mxCell id="EjGBcRymK41cddXluUsa-89" value="" style="ellipse;whiteSpace=wrap;html=1;gradientColor=none;" vertex="1" parent="1">
          <mxGeometry x="387" y="750" width="66" height="41" as="geometry" />
        </mxCell>
        <mxCell id="EjGBcRymK41cddXluUsa-90" value="" style="ellipse;whiteSpace=wrap;html=1;gradientColor=none;" vertex="1" parent="1">
          <mxGeometry x="298" y="752" width="66" height="41" as="geometry" />
        </mxCell>
        <mxCell id="EjGBcRymK41cddXluUsa-91" value="" style="ellipse;whiteSpace=wrap;html=1;gradientColor=none;" vertex="1" parent="1">
          <mxGeometry x="338.5" y="550" width="66" height="41" as="geometry" />
        </mxCell>
        <mxCell id="EjGBcRymK41cddXluUsa-92" value="" style="endArrow=none;html=1;rounded=0;shadow=0;sketch=0;entryX=0.25;entryY=1;entryDx=0;entryDy=0;" edge="1" parent="1" target="EjGBcRymK41cddXluUsa-61">
          <mxGeometry width="50" height="50" relative="1" as="geometry">
            <mxPoint x="333" y="752" as="sourcePoint" />
            <mxPoint x="392" y="716.75" as="targetPoint" />
          </mxGeometry>
        </mxCell>
        <mxCell id="EjGBcRymK41cddXluUsa-93" value="" style="endArrow=none;html=1;rounded=0;shadow=0;sketch=0;entryX=0.75;entryY=1;entryDx=0;entryDy=0;" edge="1" parent="1" target="EjGBcRymK41cddXluUsa-61">
          <mxGeometry width="50" height="50" relative="1" as="geometry">
            <mxPoint x="410" y="752" as="sourcePoint" />
            <mxPoint x="429.25" y="700.75" as="targetPoint" />
          </mxGeometry>
        </mxCell>
        <mxCell id="EjGBcRymK41cddXluUsa-94" value="" style="endArrow=none;html=1;rounded=0;shadow=0;sketch=0;" edge="1" parent="1">
          <mxGeometry width="50" height="50" relative="1" as="geometry">
            <mxPoint x="371" y="672" as="sourcePoint" />
            <mxPoint x="371" y="591" as="targetPoint" />
          </mxGeometry>
        </mxCell>
        <mxCell id="EjGBcRymK41cddXluUsa-97" value="" style="endArrow=none;html=1;rounded=0;shadow=0;sketch=0;" edge="1" parent="1">
          <mxGeometry width="50" height="50" relative="1" as="geometry">
            <mxPoint x="627" y="774.25" as="sourcePoint" />
            <mxPoint x="627" y="706" as="targetPoint" />
          </mxGeometry>
        </mxCell>
        <mxCell id="EjGBcRymK41cddXluUsa-99" value="" style="endArrow=none;html=1;rounded=0;shadow=0;sketch=0;entryX=0;entryY=0.5;entryDx=0;entryDy=0;" edge="1" parent="1" target="EjGBcRymK41cddXluUsa-64">
          <mxGeometry width="50" height="50" relative="1" as="geometry">
            <mxPoint x="518" y="683.5" as="sourcePoint" />
            <mxPoint x="518" y="622.5" as="targetPoint" />
          </mxGeometry>
        </mxCell>
        <mxCell id="EjGBcRymK41cddXluUsa-100" value="" style="endArrow=none;html=1;rounded=0;shadow=0;sketch=0;" edge="1" parent="1">
          <mxGeometry width="50" height="50" relative="1" as="geometry">
            <mxPoint x="678" y="683" as="sourcePoint" />
            <mxPoint x="735" y="682" as="targetPoint" />
          </mxGeometry>
        </mxCell>
        <mxCell id="EjGBcRymK41cddXluUsa-101" value="" style="ellipse;whiteSpace=wrap;html=1;gradientColor=none;" vertex="1" parent="1">
          <mxGeometry x="28" y="487" width="66" height="41" as="geometry" />
        </mxCell>
        <mxCell id="EjGBcRymK41cddXluUsa-102" value="" style="ellipse;whiteSpace=wrap;html=1;gradientColor=none;" vertex="1" parent="1">
          <mxGeometry x="166" y="483" width="66" height="41" as="geometry" />
        </mxCell>
        <mxCell id="EjGBcRymK41cddXluUsa-104" value="" style="endArrow=none;html=1;rounded=0;shadow=0;sketch=0;entryX=0.5;entryY=1;entryDx=0;entryDy=0;" edge="1" parent="1" target="EjGBcRymK41cddXluUsa-102">
          <mxGeometry width="50" height="50" relative="1" as="geometry">
            <mxPoint x="152" y="596.25" as="sourcePoint" />
            <mxPoint x="152" y="528" as="targetPoint" />
          </mxGeometry>
        </mxCell>
        <mxCell id="EjGBcRymK41cddXluUsa-105" value="" style="endArrow=none;html=1;rounded=0;shadow=0;sketch=0;entryX=0;entryY=0.5;entryDx=0;entryDy=0;exitX=0.303;exitY=0.976;exitDx=0;exitDy=0;exitPerimeter=0;" edge="1" parent="1" source="EjGBcRymK41cddXluUsa-101" target="EjGBcRymK41cddXluUsa-80">
          <mxGeometry width="50" height="50" relative="1" as="geometry">
            <mxPoint x="50" y="663.25" as="sourcePoint" />
            <mxPoint x="97" y="591" as="targetPoint" />
          </mxGeometry>
        </mxCell>
        <mxCell id="EjGBcRymK41cddXluUsa-106" value="Team" style="text;html=1;strokeColor=none;fillColor=none;align=center;verticalAlign=middle;whiteSpace=wrap;rounded=0;" vertex="1" parent="1">
          <mxGeometry x="93" y="578.75" width="60" height="30" as="geometry" />
        </mxCell>
      </root>
    </mxGraphModel>
  </diagram>
</mxfile>
